Systema - Russian Martial Art

Knife fighting & throwing techniques for Spetznaz (Russian Special Forces).

General
Complete name                    : Russian_Martial_Art_Vladimir_Vasiliev_Systema_Knife_Fighting_and_Throwing.divx
Format                           : DivX
Format/Info                      : Hack of AVI
File size                        : 702 MiB
Duration                         : 1h 12mn
Overall bit rate                 : 1 353 Kbps

Video
ID                               : 0
Format                           : MPEG-4 Visual
Format settings, BVOP            : Yes
Format settings, QPel            : No
Format settings, GMC             : No warppoints
Format settings, Matrix          : Default (H.263)
Muxing mode                      : Packed bitstream
Codec ID                         : DX50
Codec ID/Hint                    : DivX 5
Duration                         : 1h 12mn
Bit rate                         : 1 214 Kbps
Width                            : 640 pixels
Height                           : 480 pixels
Display aspect ratio             : 4:3
Frame rate                       : 29.970 fps
Color space                      : YUV
Chroma subsampling               : 4:2:0
Bit depth                        : 8 bits
Scan type                        : Progressive
Bits/(Pixel*Frame)               : 0.132
Stream size                      : 629 MiB (90%)
Title                            : Main
Writing library                  : DivX 6.8.2 (UTC 2008-05-17)

Audio
ID                               : 1
Format                           : MPEG Audio
Format version                   : Version 1
Format profile                   : Layer 3
Mode                             : Joint stereo
Mode extension                   : MS Stereo
Codec ID                         : 55
Codec ID/Hint                    : MP3
Duration                         : 1h 12mn
Bit rate mode                    : Constant
Bit rate                         : 128 Kbps
Channel(s)                       : 2 channels
Sampling rate                    : 48.0 KHz
Stream size                      : 66.4 MiB (9%)
Alignment                        : Split accross interleaves
Interleave, duration             : 33 ms (1.00 video frame)
Interleave, preload duration     : 500 ms
Title                            : Audio 
Writing library                  : LAME3.97 (beta)